<mxfile host="app.diagrams.net" modified="2022-01-07T10:05:00.297Z" agent="5.0 (X11; Linux x86_64) AppleWebKit/537.36 (KHTML, like Gecko) Chrome/94.0.4606.61 Safari/537.36 Edg/94.0.992.31" etag="YLUFMIbtxuM485cMfFnd" version="16.1.0" type="github">
  <diagram id="m_Ipif32aVxnQrA0hP1K" name="Page-1">
    <mxGraphModel dx="1350" dy="773" grid="1" gridSize="10" guides="1" tooltips="1" connect="1" arrows="1" fold="1" page="1" pageScale="1" pageWidth="827" pageHeight="1169" math="0" shadow="0">
      <root>
        <mxCell id="0" />
        <mxCell id="1" parent="0" />
        <mxCell id="WmUMqgKDI2kvjSaTdZdE-3" value="" style="edgeStyle=orthogonalEdgeStyle;rounded=0;orthogonalLoop=1;jettySize=auto;html=1;" edge="1" parent="1" source="WmUMqgKDI2kvjSaTdZdE-1" target="WmUMqgKDI2kvjSaTdZdE-2">
          <mxGeometry relative="1" as="geometry" />
        </mxCell>
        <mxCell id="WmUMqgKDI2kvjSaTdZdE-1" value="Memory Pool" style="rounded=0;whiteSpace=wrap;html=1;" vertex="1" parent="1">
          <mxGeometry x="40" y="160" width="120" height="60" as="geometry" />
        </mxCell>
        <mxCell id="WmUMqgKDI2kvjSaTdZdE-25" value="" style="group" vertex="1" connectable="0" parent="1">
          <mxGeometry x="200" y="140" width="560" height="100" as="geometry" />
        </mxCell>
        <mxCell id="WmUMqgKDI2kvjSaTdZdE-2" value="" style="rounded=0;whiteSpace=wrap;html=1;" vertex="1" parent="WmUMqgKDI2kvjSaTdZdE-25">
          <mxGeometry width="560" height="100" as="geometry" />
        </mxCell>
        <mxCell id="WmUMqgKDI2kvjSaTdZdE-9" value="" style="group" vertex="1" connectable="0" parent="WmUMqgKDI2kvjSaTdZdE-25">
          <mxGeometry x="60" y="30" width="120" height="60" as="geometry" />
        </mxCell>
        <mxCell id="WmUMqgKDI2kvjSaTdZdE-6" value="head" style="rounded=0;whiteSpace=wrap;html=1;dashed=1;fillColor=#d5e8d4;strokeColor=#82b366;" vertex="1" parent="WmUMqgKDI2kvjSaTdZdE-9">
          <mxGeometry x="20" width="40" height="40" as="geometry" />
        </mxCell>
        <mxCell id="WmUMqgKDI2kvjSaTdZdE-7" value="data" style="rounded=0;whiteSpace=wrap;html=1;dashed=1;fillColor=#ffe6cc;strokeColor=#d79b00;" vertex="1" parent="WmUMqgKDI2kvjSaTdZdE-9">
          <mxGeometry x="60" width="80" height="40" as="geometry" />
        </mxCell>
        <mxCell id="WmUMqgKDI2kvjSaTdZdE-8" value="chunk" style="text;html=1;strokeColor=none;fillColor=none;align=center;verticalAlign=middle;whiteSpace=wrap;rounded=0;dashed=1;" vertex="1" parent="WmUMqgKDI2kvjSaTdZdE-9">
          <mxGeometry x="50" y="40" width="60" height="20" as="geometry" />
        </mxCell>
        <mxCell id="WmUMqgKDI2kvjSaTdZdE-10" value="" style="group" vertex="1" connectable="0" parent="WmUMqgKDI2kvjSaTdZdE-25">
          <mxGeometry x="240" y="30" width="120" height="60" as="geometry" />
        </mxCell>
        <mxCell id="WmUMqgKDI2kvjSaTdZdE-11" value="head" style="rounded=0;whiteSpace=wrap;html=1;dashed=1;fillColor=#d5e8d4;strokeColor=#82b366;" vertex="1" parent="WmUMqgKDI2kvjSaTdZdE-10">
          <mxGeometry width="40" height="40" as="geometry" />
        </mxCell>
        <mxCell id="WmUMqgKDI2kvjSaTdZdE-12" value="data" style="rounded=0;whiteSpace=wrap;html=1;dashed=1;fillColor=#ffe6cc;strokeColor=#d79b00;" vertex="1" parent="WmUMqgKDI2kvjSaTdZdE-10">
          <mxGeometry x="40" width="80" height="40" as="geometry" />
        </mxCell>
        <mxCell id="WmUMqgKDI2kvjSaTdZdE-13" value="chunk" style="text;html=1;strokeColor=none;fillColor=none;align=center;verticalAlign=middle;whiteSpace=wrap;rounded=0;dashed=1;" vertex="1" parent="WmUMqgKDI2kvjSaTdZdE-10">
          <mxGeometry x="30" y="40" width="60" height="20" as="geometry" />
        </mxCell>
        <mxCell id="WmUMqgKDI2kvjSaTdZdE-14" value="" style="group" vertex="1" connectable="0" parent="WmUMqgKDI2kvjSaTdZdE-25">
          <mxGeometry x="400" y="30" width="120" height="60" as="geometry" />
        </mxCell>
        <mxCell id="WmUMqgKDI2kvjSaTdZdE-15" value="head" style="rounded=0;whiteSpace=wrap;html=1;dashed=1;fillColor=#d5e8d4;strokeColor=#82b366;" vertex="1" parent="WmUMqgKDI2kvjSaTdZdE-14">
          <mxGeometry width="40" height="40" as="geometry" />
        </mxCell>
        <mxCell id="WmUMqgKDI2kvjSaTdZdE-16" value="data" style="rounded=0;whiteSpace=wrap;html=1;dashed=1;fillColor=#ffe6cc;strokeColor=#d79b00;" vertex="1" parent="WmUMqgKDI2kvjSaTdZdE-14">
          <mxGeometry x="40" width="80" height="40" as="geometry" />
        </mxCell>
        <mxCell id="WmUMqgKDI2kvjSaTdZdE-17" value="chunk" style="text;html=1;strokeColor=none;fillColor=none;align=center;verticalAlign=middle;whiteSpace=wrap;rounded=0;dashed=1;" vertex="1" parent="WmUMqgKDI2kvjSaTdZdE-14">
          <mxGeometry x="30" y="40" width="60" height="20" as="geometry" />
        </mxCell>
        <mxCell id="WmUMqgKDI2kvjSaTdZdE-18" value="head" style="rounded=0;whiteSpace=wrap;html=1;dashed=1;fillColor=#f8cecc;strokeColor=#b85450;" vertex="1" parent="WmUMqgKDI2kvjSaTdZdE-25">
          <mxGeometry x="20" y="30" width="40" height="40" as="geometry" />
        </mxCell>
        <mxCell id="WmUMqgKDI2kvjSaTdZdE-23" style="edgeStyle=orthogonalEdgeStyle;rounded=0;orthogonalLoop=1;jettySize=auto;html=1;" edge="1" parent="WmUMqgKDI2kvjSaTdZdE-25" source="WmUMqgKDI2kvjSaTdZdE-6">
          <mxGeometry relative="1" as="geometry">
            <mxPoint x="290" y="30" as="targetPoint" />
            <Array as="points">
              <mxPoint x="100" y="20" />
              <mxPoint x="290" y="20" />
            </Array>
          </mxGeometry>
        </mxCell>
        <mxCell id="WmUMqgKDI2kvjSaTdZdE-24" style="edgeStyle=orthogonalEdgeStyle;rounded=0;orthogonalLoop=1;jettySize=auto;html=1;" edge="1" parent="WmUMqgKDI2kvjSaTdZdE-25" source="WmUMqgKDI2kvjSaTdZdE-11">
          <mxGeometry relative="1" as="geometry">
            <mxPoint x="460" y="30" as="targetPoint" />
            <Array as="points">
              <mxPoint x="260" y="10" />
              <mxPoint x="460" y="10" />
            </Array>
          </mxGeometry>
        </mxCell>
        <mxCell id="WmUMqgKDI2kvjSaTdZdE-26" value="" style="group" vertex="1" connectable="0" parent="1">
          <mxGeometry x="200" y="320" width="560" height="100" as="geometry" />
        </mxCell>
        <mxCell id="WmUMqgKDI2kvjSaTdZdE-27" value="" style="rounded=0;whiteSpace=wrap;html=1;" vertex="1" parent="WmUMqgKDI2kvjSaTdZdE-26">
          <mxGeometry width="560" height="100" as="geometry" />
        </mxCell>
        <mxCell id="WmUMqgKDI2kvjSaTdZdE-28" value="" style="group" vertex="1" connectable="0" parent="WmUMqgKDI2kvjSaTdZdE-26">
          <mxGeometry x="60" y="30" width="120" height="60" as="geometry" />
        </mxCell>
        <mxCell id="WmUMqgKDI2kvjSaTdZdE-29" value="head" style="rounded=0;whiteSpace=wrap;html=1;dashed=1;fillColor=#d5e8d4;strokeColor=#82b366;" vertex="1" parent="WmUMqgKDI2kvjSaTdZdE-28">
          <mxGeometry x="20" width="40" height="40" as="geometry" />
        </mxCell>
        <mxCell id="WmUMqgKDI2kvjSaTdZdE-30" value="data" style="rounded=0;whiteSpace=wrap;html=1;dashed=1;fillColor=#ffe6cc;strokeColor=#d79b00;" vertex="1" parent="WmUMqgKDI2kvjSaTdZdE-28">
          <mxGeometry x="60" width="80" height="40" as="geometry" />
        </mxCell>
        <mxCell id="WmUMqgKDI2kvjSaTdZdE-31" value="chunk" style="text;html=1;strokeColor=none;fillColor=none;align=center;verticalAlign=middle;whiteSpace=wrap;rounded=0;dashed=1;" vertex="1" parent="WmUMqgKDI2kvjSaTdZdE-28">
          <mxGeometry x="50" y="40" width="60" height="20" as="geometry" />
        </mxCell>
        <mxCell id="WmUMqgKDI2kvjSaTdZdE-32" value="" style="group" vertex="1" connectable="0" parent="WmUMqgKDI2kvjSaTdZdE-26">
          <mxGeometry x="240" y="30" width="120" height="60" as="geometry" />
        </mxCell>
        <mxCell id="WmUMqgKDI2kvjSaTdZdE-33" value="head" style="rounded=0;whiteSpace=wrap;html=1;dashed=1;fillColor=#d5e8d4;strokeColor=#82b366;" vertex="1" parent="WmUMqgKDI2kvjSaTdZdE-32">
          <mxGeometry width="40" height="40" as="geometry" />
        </mxCell>
        <mxCell id="WmUMqgKDI2kvjSaTdZdE-34" value="data" style="rounded=0;whiteSpace=wrap;html=1;dashed=1;fillColor=#ffe6cc;strokeColor=#d79b00;" vertex="1" parent="WmUMqgKDI2kvjSaTdZdE-32">
          <mxGeometry x="40" width="80" height="40" as="geometry" />
        </mxCell>
        <mxCell id="WmUMqgKDI2kvjSaTdZdE-35" value="chunk" style="text;html=1;strokeColor=none;fillColor=none;align=center;verticalAlign=middle;whiteSpace=wrap;rounded=0;dashed=1;" vertex="1" parent="WmUMqgKDI2kvjSaTdZdE-32">
          <mxGeometry x="30" y="40" width="60" height="20" as="geometry" />
        </mxCell>
        <mxCell id="WmUMqgKDI2kvjSaTdZdE-36" value="" style="group" vertex="1" connectable="0" parent="WmUMqgKDI2kvjSaTdZdE-26">
          <mxGeometry x="400" y="30" width="120" height="60" as="geometry" />
        </mxCell>
        <mxCell id="WmUMqgKDI2kvjSaTdZdE-37" value="head" style="rounded=0;whiteSpace=wrap;html=1;dashed=1;fillColor=#d5e8d4;strokeColor=#82b366;" vertex="1" parent="WmUMqgKDI2kvjSaTdZdE-36">
          <mxGeometry width="40" height="40" as="geometry" />
        </mxCell>
        <mxCell id="WmUMqgKDI2kvjSaTdZdE-38" value="data" style="rounded=0;whiteSpace=wrap;html=1;dashed=1;fillColor=#ffe6cc;strokeColor=#d79b00;" vertex="1" parent="WmUMqgKDI2kvjSaTdZdE-36">
          <mxGeometry x="40" width="80" height="40" as="geometry" />
        </mxCell>
        <mxCell id="WmUMqgKDI2kvjSaTdZdE-39" value="chunk" style="text;html=1;strokeColor=none;fillColor=none;align=center;verticalAlign=middle;whiteSpace=wrap;rounded=0;dashed=1;" vertex="1" parent="WmUMqgKDI2kvjSaTdZdE-36">
          <mxGeometry x="30" y="40" width="60" height="20" as="geometry" />
        </mxCell>
        <mxCell id="WmUMqgKDI2kvjSaTdZdE-40" value="head" style="rounded=0;whiteSpace=wrap;html=1;dashed=1;fillColor=#f8cecc;strokeColor=#b85450;" vertex="1" parent="WmUMqgKDI2kvjSaTdZdE-26">
          <mxGeometry x="20" y="30" width="40" height="40" as="geometry" />
        </mxCell>
        <mxCell id="WmUMqgKDI2kvjSaTdZdE-41" style="edgeStyle=orthogonalEdgeStyle;rounded=0;orthogonalLoop=1;jettySize=auto;html=1;" edge="1" parent="WmUMqgKDI2kvjSaTdZdE-26" source="WmUMqgKDI2kvjSaTdZdE-29">
          <mxGeometry relative="1" as="geometry">
            <mxPoint x="290" y="30" as="targetPoint" />
            <Array as="points">
              <mxPoint x="100" y="20" />
              <mxPoint x="290" y="20" />
            </Array>
          </mxGeometry>
        </mxCell>
        <mxCell id="WmUMqgKDI2kvjSaTdZdE-42" style="edgeStyle=orthogonalEdgeStyle;rounded=0;orthogonalLoop=1;jettySize=auto;html=1;" edge="1" parent="WmUMqgKDI2kvjSaTdZdE-26" source="WmUMqgKDI2kvjSaTdZdE-33">
          <mxGeometry relative="1" as="geometry">
            <mxPoint x="460" y="30" as="targetPoint" />
            <Array as="points">
              <mxPoint x="260" y="10" />
              <mxPoint x="460" y="10" />
            </Array>
          </mxGeometry>
        </mxCell>
        <mxCell id="WmUMqgKDI2kvjSaTdZdE-43" value="" style="endArrow=classic;html=1;rounded=0;exitX=0.07;exitY=1.02;exitDx=0;exitDy=0;exitPerimeter=0;entryX=0.07;entryY=-0.02;entryDx=0;entryDy=0;entryPerimeter=0;" edge="1" parent="1" source="WmUMqgKDI2kvjSaTdZdE-2" target="WmUMqgKDI2kvjSaTdZdE-27">
          <mxGeometry width="50" height="50" relative="1" as="geometry">
            <mxPoint x="90" y="450" as="sourcePoint" />
            <mxPoint x="140" y="400" as="targetPoint" />
          </mxGeometry>
        </mxCell>
        <mxCell id="WmUMqgKDI2kvjSaTdZdE-44" value="" style="group" vertex="1" connectable="0" parent="1">
          <mxGeometry x="200" y="500" width="560" height="100" as="geometry" />
        </mxCell>
        <mxCell id="WmUMqgKDI2kvjSaTdZdE-45" value="" style="rounded=0;whiteSpace=wrap;html=1;" vertex="1" parent="WmUMqgKDI2kvjSaTdZdE-44">
          <mxGeometry width="560" height="100" as="geometry" />
        </mxCell>
        <mxCell id="WmUMqgKDI2kvjSaTdZdE-46" value="" style="group" vertex="1" connectable="0" parent="WmUMqgKDI2kvjSaTdZdE-44">
          <mxGeometry x="60" y="30" width="120" height="60" as="geometry" />
        </mxCell>
        <mxCell id="WmUMqgKDI2kvjSaTdZdE-47" value="head" style="rounded=0;whiteSpace=wrap;html=1;dashed=1;fillColor=#d5e8d4;strokeColor=#82b366;" vertex="1" parent="WmUMqgKDI2kvjSaTdZdE-46">
          <mxGeometry x="20" width="40" height="40" as="geometry" />
        </mxCell>
        <mxCell id="WmUMqgKDI2kvjSaTdZdE-48" value="data" style="rounded=0;whiteSpace=wrap;html=1;dashed=1;fillColor=#ffe6cc;strokeColor=#d79b00;" vertex="1" parent="WmUMqgKDI2kvjSaTdZdE-46">
          <mxGeometry x="60" width="80" height="40" as="geometry" />
        </mxCell>
        <mxCell id="WmUMqgKDI2kvjSaTdZdE-49" value="chunk" style="text;html=1;strokeColor=none;fillColor=none;align=center;verticalAlign=middle;whiteSpace=wrap;rounded=0;dashed=1;" vertex="1" parent="WmUMqgKDI2kvjSaTdZdE-46">
          <mxGeometry x="50" y="40" width="60" height="20" as="geometry" />
        </mxCell>
        <mxCell id="WmUMqgKDI2kvjSaTdZdE-50" value="" style="group" vertex="1" connectable="0" parent="WmUMqgKDI2kvjSaTdZdE-44">
          <mxGeometry x="240" y="30" width="120" height="60" as="geometry" />
        </mxCell>
        <mxCell id="WmUMqgKDI2kvjSaTdZdE-51" value="head" style="rounded=0;whiteSpace=wrap;html=1;dashed=1;fillColor=#d5e8d4;strokeColor=#82b366;" vertex="1" parent="WmUMqgKDI2kvjSaTdZdE-50">
          <mxGeometry width="40" height="40" as="geometry" />
        </mxCell>
        <mxCell id="WmUMqgKDI2kvjSaTdZdE-52" value="data" style="rounded=0;whiteSpace=wrap;html=1;dashed=1;fillColor=#ffe6cc;strokeColor=#d79b00;" vertex="1" parent="WmUMqgKDI2kvjSaTdZdE-50">
          <mxGeometry x="40" width="80" height="40" as="geometry" />
        </mxCell>
        <mxCell id="WmUMqgKDI2kvjSaTdZdE-53" value="chunk" style="text;html=1;strokeColor=none;fillColor=none;align=center;verticalAlign=middle;whiteSpace=wrap;rounded=0;dashed=1;" vertex="1" parent="WmUMqgKDI2kvjSaTdZdE-50">
          <mxGeometry x="30" y="40" width="60" height="20" as="geometry" />
        </mxCell>
        <mxCell id="WmUMqgKDI2kvjSaTdZdE-54" value="" style="group" vertex="1" connectable="0" parent="WmUMqgKDI2kvjSaTdZdE-44">
          <mxGeometry x="400" y="30" width="120" height="60" as="geometry" />
        </mxCell>
        <mxCell id="WmUMqgKDI2kvjSaTdZdE-55" value="head" style="rounded=0;whiteSpace=wrap;html=1;dashed=1;fillColor=#d5e8d4;strokeColor=#82b366;" vertex="1" parent="WmUMqgKDI2kvjSaTdZdE-54">
          <mxGeometry width="40" height="40" as="geometry" />
        </mxCell>
        <mxCell id="WmUMqgKDI2kvjSaTdZdE-56" value="data" style="rounded=0;whiteSpace=wrap;html=1;dashed=1;fillColor=#ffe6cc;strokeColor=#d79b00;" vertex="1" parent="WmUMqgKDI2kvjSaTdZdE-54">
          <mxGeometry x="40" width="80" height="40" as="geometry" />
        </mxCell>
        <mxCell id="WmUMqgKDI2kvjSaTdZdE-57" value="chunk" style="text;html=1;strokeColor=none;fillColor=none;align=center;verticalAlign=middle;whiteSpace=wrap;rounded=0;dashed=1;" vertex="1" parent="WmUMqgKDI2kvjSaTdZdE-54">
          <mxGeometry x="30" y="40" width="60" height="20" as="geometry" />
        </mxCell>
        <mxCell id="WmUMqgKDI2kvjSaTdZdE-58" value="head" style="rounded=0;whiteSpace=wrap;html=1;dashed=1;fillColor=#f8cecc;strokeColor=#b85450;" vertex="1" parent="WmUMqgKDI2kvjSaTdZdE-44">
          <mxGeometry x="20" y="30" width="40" height="40" as="geometry" />
        </mxCell>
        <mxCell id="WmUMqgKDI2kvjSaTdZdE-59" style="edgeStyle=orthogonalEdgeStyle;rounded=0;orthogonalLoop=1;jettySize=auto;html=1;" edge="1" parent="WmUMqgKDI2kvjSaTdZdE-44" source="WmUMqgKDI2kvjSaTdZdE-47">
          <mxGeometry relative="1" as="geometry">
            <mxPoint x="290" y="30" as="targetPoint" />
            <Array as="points">
              <mxPoint x="100" y="20" />
              <mxPoint x="290" y="20" />
            </Array>
          </mxGeometry>
        </mxCell>
        <mxCell id="WmUMqgKDI2kvjSaTdZdE-60" style="edgeStyle=orthogonalEdgeStyle;rounded=0;orthogonalLoop=1;jettySize=auto;html=1;" edge="1" parent="WmUMqgKDI2kvjSaTdZdE-44" source="WmUMqgKDI2kvjSaTdZdE-51">
          <mxGeometry relative="1" as="geometry">
            <mxPoint x="460" y="30" as="targetPoint" />
            <Array as="points">
              <mxPoint x="260" y="10" />
              <mxPoint x="460" y="10" />
            </Array>
          </mxGeometry>
        </mxCell>
        <mxCell id="WmUMqgKDI2kvjSaTdZdE-61" value="" style="endArrow=classic;html=1;rounded=0;exitX=0.07;exitY=1.02;exitDx=0;exitDy=0;exitPerimeter=0;entryX=0.07;entryY=-0.02;entryDx=0;entryDy=0;entryPerimeter=0;" edge="1" parent="1">
          <mxGeometry width="50" height="50" relative="1" as="geometry">
            <mxPoint x="240.00000000000006" y="420" as="sourcePoint" />
            <mxPoint x="240.00000000000006" y="496" as="targetPoint" />
          </mxGeometry>
        </mxCell>
      </root>
    </mxGraphModel>
  </diagram>
</mxfile>
